# xmcd CD database file
#
# Track frame offsets:
#	150
#	14925
#	32807
#	54530
#	70200
#	89170
#	109235
#	126975
#	140152
#	157885
#
# Disc length: 2405 seconds
#
# Revision: 0
# Processed by: cddbd v1.4PL0 Copyright (c) Steve Scherf et al.
# Submitted via: CDex 1.50Beta7
#
DISCID=9909630a
DTITLE=Toni Catlin - Heartache on the Run
DYEAR=2001
DGENRE=Country
TTITLE0=Breakin' New Ground
TTITLE1=No Justice in Love
TTITLE2=Me and My Heartache on the Run
TTITLE3=Wrong Side of me
TTITLE4=We are Water
TTITLE5=Somewhere in Your Heart
TTITLE6=If I Were a Train
TTITLE7=Talkin' to the Wind
TTITLE8=Bulletproof
TTITLE9=Sometimes I Cry
EXTD=YEAR: 2001
EXTT0=
EXTT1=
EXTT2=
EXTT3=
EXTT4=
EXTT5=
EXTT6=
EXTT7=
EXTT8=
EXTT9=
PLAYORDER=
